<svg xmlns="http://www.w3.org/2000/svg" viewBox="-14.0 -10.0 868.0 262.0" width="868" height="262" role="img" font-size="12" aria-label="bar chart"><style>
svg {
  --ink:#1B2430; --muted:#5A6572; --line:#D8DEE4;
  --arm-A:#4E74C9; --arm-B:#C2563B; --arm-C:#0F98A8; --arm-D:#8A56C0;
  font-family: ui-monospace, "SF Mono", Menlo, Consolas, monospace;
}
.grid { stroke: var(--line); stroke-width: 1; }
.zero { stroke: var(--muted); stroke-width: 1.4; stroke-dasharray: 3 3; }
.axis { fill: var(--muted); }
.lab { fill: var(--ink); }
.val { fill: var(--muted); font-size: 11px; }
.whisk { stroke-width: 2; }
.dot-miss { fill: none; stroke-width: 1.6; }
.bar-neutral { fill: var(--muted); }
.cell-fits { fill: var(--line); }
.arm-A-fill { fill: var(--arm-A); } .arm-B-fill { fill: var(--arm-B); }
.arm-C-fill { fill: var(--arm-C); } .arm-D-fill { fill: var(--arm-D); }
.arm-A-line { stroke: var(--arm-A); } .arm-B-line { stroke: var(--arm-B); }
.arm-C-line { stroke: var(--arm-C); } .arm-D-line { stroke: var(--arm-D); }
</style><rect x="-14.0" y="-10.0" width="868" height="262" fill="#FFFFFF"/><line x1="380.0" y1="8" x2="380.0" y2="216" class="grid"/><text x="380.0" y="232" text-anchor="middle" class="axis">0.0</text><line x1="471.2" y1="8" x2="471.2" y2="216" class="grid"/><text x="471.2" y="232" text-anchor="middle" class="axis">1.9</text><line x1="562.5" y1="8" x2="562.5" y2="216" class="grid"/><text x="562.5" y="232" text-anchor="middle" class="axis">3.8</text><line x1="653.8" y1="8" x2="653.8" y2="216" class="grid"/><text x="653.8" y="232" text-anchor="middle" class="axis">5.6</text><line x1="745.0" y1="8" x2="745.0" y2="216" class="grid"/><text x="745.0" y="232" text-anchor="middle" class="axis">7.5</text><text x="370" y="24.5" text-anchor="end" class="lab">small CLI (36 cmds) · Haiku · regular</text><rect x="380" y="13" width="189.8" height="15" rx="3" class="arm-A-fill mark"><title>small CLI (36 cmds) · Haiku · regular: 3.9 </title></rect><text x="577.8" y="24.5" class="val">3.9</text><text x="370" y="50.5" text-anchor="end" class="lab">small CLI (36 cmds) · Haiku · everything</text><rect x="380" y="39" width="68.1" height="15" rx="3" class="arm-D-fill mark"><title>small CLI (36 cmds) · Haiku · everything: 1.4 </title></rect><text x="456.1" y="50.5" class="val">1.4</text><text x="370" y="76.5" text-anchor="end" class="lab">small CLI (36 cmds) · GPT-5.4-mini · regular</text><rect x="380" y="65" width="262.8" height="15" rx="3" class="arm-A-fill mark"><title>small CLI (36 cmds) · GPT-5.4-mini · regular: 5.4 </title></rect><text x="650.8" y="76.5" class="val">5.4</text><text x="370" y="102.5" text-anchor="end" class="lab">small CLI (36 cmds) · GPT-5.4-mini · everything</text><rect x="380" y="91" width="68.1" height="15" rx="3" class="arm-D-fill mark"><title>small CLI (36 cmds) · GPT-5.4-mini · everything: 1.4 </title></rect><text x="456.1" y="102.5" class="val">1.4</text><text x="370" y="128.5" text-anchor="end" class="lab">large CLI (132 cmds) · Haiku · regular</text><rect x="380" y="117" width="199.5" height="15" rx="3" class="arm-A-fill mark"><title>large CLI (132 cmds) · Haiku · regular: 4.1 </title></rect><text x="587.5" y="128.5" class="val">4.1</text><text x="370" y="154.5" text-anchor="end" class="lab">large CLI (132 cmds) · Haiku · everything</text><rect x="380" y="143" width="238.5" height="15" rx="3" class="arm-D-fill mark"><title>large CLI (132 cmds) · Haiku · everything: 4.9 </title></rect><text x="626.5" y="154.5" class="val">4.9</text><text x="370" y="180.5" text-anchor="end" class="lab">large CLI (132 cmds) · GPT-5.4-mini · regular</text><rect x="380" y="169" width="330.9" height="15" rx="3" class="arm-A-fill mark"><title>large CLI (132 cmds) · GPT-5.4-mini · regular: 6.8 </title></rect><text x="718.9" y="180.5" class="val">6.8</text><text x="370" y="206.5" text-anchor="end" class="lab">large CLI (132 cmds) · GPT-5.4-mini · everything</text><rect x="380" y="195" width="150.9" height="15" rx="3" class="arm-D-fill mark"><title>large CLI (132 cmds) · GPT-5.4-mini · everything: 3.1 </title></rect><text x="538.9" y="206.5" class="val">3.1</text></svg>
